<svg xmlns="http://www.w3.org/2000/svg" id="Layer_1" x="0" y="0" version="1.1" viewBox="0 0 1487 1550" xml:space="preserve"><style>.st0{fill:#794b1e;stroke:#010101;stroke-width:20}.st1{opacity:.53;fill:#694118}.st2{fill:none;stroke:#010101;stroke-width:20}.st3{fill:#fff5e5}.st4{opacity:.1}.st4,.st5{fill:#794b1e}.st6{opacity:.5;fill:#885525}.st7{fill:#794b1e;stroke:#010101;stroke-width:20}.st10{fill:#010101}</style><path d="M510 665l-69 483s-22-7-81 13c-59 19 88 277 88 277s-16 12-7 18 342-115 661-9 247-142 247-142-38-148-186-274-124-351-124-351l-529-15z" class="st0"/><path d="M1005 1324s11-251-58-267c-5-1 20-84 18-83-77 60-56 71-117 164-14 20-113 181-232 222-37 13-66 11-90 19-59 20-78 59-78 59s-16 12-7 18 342-115 661-9 247-142 247-142-38-148-186-274-124-351-124-351l-34 644z" class="st1"/><path d="M510 665l-69 483s-22-7-81 13c-59 19 88 277 88 277s-16 12-7 18 342-115 661-9 247-142 247-142-38-148-186-274-124-351-124-351l-529-15z" class="st2"/><path d="M519 1340c-6 147-108 189-191 189s-160-42-160-161c0-106 116-220 199-220s156 86 152 192z" class="st0"/><path d="M468 1340c-4 102-78 149-136 149s-125-43-125-126c0-74 87-138 145-138s119 41 116 115z" class="st3"/><path d="M468 1322c0 128-78 167-136 167s-125-43-125-126c0-43 11 18 41 55 22 27 59 29 84 29 24 0 70-21 94-57 34-48 42-111 42-68z" class="st4"/><path d="M1437 1364c-7 137-122 176-217 176s-182-39-182-150c0-98 132-204 227-204s176 80 172 178z" class="st0"/><path d="M1402 1363c-5 104-117 130-189 130s-137-29-137-113c0-75 91-133 163-133s167 41 163 116z" class="st3"/><path d="M1401 1363c-5 104-117 130-189 130-72 1-138-29-138-113 0-25 109-175 136-184 61-21 23 107-17 167-21 31-17 65-2 74 46 25 101 19 141 0 64-32 72-149 69-74z" class="st4"/><path d="M481 1104c-257-7-365-286-394-339-16-29-56-42-74-99s57-143 130-175 91-38 149 55 151 219 223 258" class="st5"/><path d="M15 621c7 8-11 28 3 59 21 48 42 36 63 76 49 93 112 199 182 263 88 81 176 85 218 85 28 0 16-44-143-120S102 734 113 691c7-24 11-63 25-81 8-12 30-52-57 6-21 15-15 13-28 5-30-19-16-42-16-42l-22 42z" class="st1"/><path d="M168 560c19-9 9-59-85-24-23 8-3-12 60-46 37-20 83-24 117 7 0 0 3 35-53 79-66 52-60-7-39-16z" class="st6"/><ellipse cx="137.6" cy="577.5" class="st3" rx="109.5" ry="35.5" transform="rotate(-39 138 578)"/><path d="M223 509c12 15-16 58-63 96s-95 56-108 41c-12-15 52-17 99-55s60-97 72-82z" class="st4"/><path d="M911 1028c-2 77-108 177-143 304-18 61 44 153 116 168s151 24 176-69 151-98 166-332-156-304-156-304" class="st5"/><path d="M1045 764s195 100 181 335-142 238-166 332-104 84-176 69-136-108-116-168c13-40 222 76 264 12 0 0 157-150 53-356-42-84-581-41-617-295-3-21 587 92 577 71z" class="st1"/><path d="M969 1486c-8 8-34-2-65-8-23-5-62-29-76-45-25-30-28-37-25-43 8-13 51-2 97 24s79 61 69 72z" class="st3"/><path d="M969 1486c-8 8-34-2-65-8-23-5-62-29-76-45-25-30-28-37-25-43 8-13 51-2 97 24s79 61 69 72z" class="st4"/><path d="M911 1028c-2 77-108 177-143 304-18 61 44 153 116 168s151 24 176-69 151-98 166-332-156-304-156-304" class="st2"/><path d="M754 237c0 113-85 172-201 172s-220-59-220-172c0-72 48-168 107-204 32-20 215 19 257 19 116 0 57 72 57 185zM1059 401c-17-112 58-183 173-200s226 25 243 136c11 72-22 174-74 219-30 25-217 13-258 19-115 18-67-62-84-174z" class="st7"/><path fill="#794b1e" stroke="#010101" stroke-width=".3" d="M1326 438c0 129-44 284-143 363-84 66-214 66-335 66-139 0-294-44-381-128-79-77-97-188-97-301 0-236 214-428 478-428s478 192 478 428z"/><path d="M370 438c-17-226 301-579 734-362 0 0-321-86-508 105-153 157-220 344-226 257z" class="st6"/><path fill="#694118" d="M1028 788c242-107 293-590 293-354 0 129-43 284-143 363-84 66-214 66-335 66-138 0-293-44-380-128 0 0 299 170 565 53z" opacity=".5"/><path d="M946 587c-4 97-92 135-196 135s-224-74-224-171c0-46 31-75 61-107 23-24 101-66 129-64 62 3 162 64 189 99 29 39 43 72 41 108z" class="st3"/><path d="M640 538l10-12a148 148 0 0122-20l3-2 4-1 4-2h1v-1h4l6-1 1 3 9 10a128 128 0 0116 28l1 3 1 4 1 4c0 4-3 7-6 7s-5-1-6-3l-1-1-6-10-7-11-6-12-6-12 7 2v2h-1v1l-2 2-3 3-2 2a162 162 0 01-35 26c-4 2-8 1-9-3v-6z" class="st10"/><path d="M708 462l-1 6a113 113 0 01-2 11l-2 6-3 10-3 11h-14l-1-14a75 75 0 019-30l3-5 14 5z" class="st10"/><path d="M671 425s0-14 22-27 66 19 71 32-65 36-65 36-30-21-28-41z" class="st10"/><circle cx="687.6" cy="411.6" r="2.5" class="st3"/><circle cx="696.1" cy="406.7" r="5" class="st3"/><ellipse cx="644.6" cy="351.6" class="st10" rx="34.5" ry="46"/><ellipse cx="868.6" cy="380" class="st10" rx="40.5" ry="54.4"/><ellipse cx="634.7" cy="365.8" class="st3" rx="9.9" ry="16.2"/><ellipse cx="853.2" cy="394.6" class="st3" rx="9.9" ry="16.2"/><path d="M481 1104c-257-7-365-286-394-339-16-29-56-42-74-99s57-143 130-175 91-38 149 55 154 232 226 270m808-378c0 129-44 284-143 363-84 66-214 66-335 66-139 0-294-44-381-128-79-77-97-188-97-301 0-236 214-428 478-428s478 192 478 428z" class="st2"/></svg>