<svg xmlns="http://www.w3.org/2000/svg" id="Layer_1" x="0" y="0" version="1.1" viewBox="0 0 1472 1535" xml:space="preserve"><style>.st0{fill:#794b1e;stroke:#010101;stroke-width:5;stroke-miterlimit:10}.st1{opacity:.5;fill:#885525}.st2{opacity:.53;fill:#694118}.st3{fill:#fff5e5}.st4{opacity:.1;fill:#794b1e}.st5{fill:#010101}</style><path d="M745 230c0 113-85 171-201 171s-220-58-220-171c0-73 48-168 107-205 32-20 215 20 257 20 116 0 57 72 57 185z" class="st0"/><path d="M746 230c0 113-85 171-201 171s-219-58-219-171c0-73 48-168 106-205 33-20 216 20 258 20 116 0 56 72 56 185z" class="st1"/><path d="M1052 393c-17-111 58-182 173-200s226 25 243 137c11 71-22 173-75 218-29 25-216 13-257 20-115 17-67-63-84-175z" class="st0"/><path d="M1052 393c-17-111 58-182 173-200s226 25 243 137c11 71-22 173-75 218-29 25-216 13-257 20-115 17-67-63-84-175z" class="st2"/><path d="M502 657l-68 484s-22-8-81 12c-60 20 88 278 88 278s-16 12-7 17c9 6 342-115 660-9s247-142 247-142-38-147-185-273-125-351-125-351l-529-16z" class="st0"/><path d="M998 1316s11-250-58-267c-6-1 19-84 17-82-77 59-55 70-117 163-13 21-113 182-231 223-38 12-66 11-91 19-59 20-77 59-77 59s-16 12-7 17c9 6 342-115 660-9s247-142 247-142-38-147-185-273-125-351-125-351l-33 643z" class="st2"/><path d="M511 1332c-5 148-107 189-191 189s-160-41-160-161c0-106 116-220 200-220s156 87 151 192z" class="st0"/><path d="M461 1332c-5 102-79 150-137 150s-124-44-124-127c0-73 86-137 144-137s119 40 117 114z" class="st3"/><path d="M461 1314c0 129-79 168-137 168s-124-44-124-127c0-43 10 19 41 56 21 27 59 28 83 28 25 0 70-21 95-56 33-49 42-111 42-69z" class="st4"/><path d="M1429 1357c-7 137-122 175-217 175s-181-38-181-149c0-99 132-205 226-205s177 80 172 179z" class="st0"/><path d="M1395 1355c-5 104-117 131-189 131s-138-29-138-113c0-75 92-133 164-133 71 0 166 41 163 115z" class="st3"/><path d="M1393 1355c-5 104-117 131-189 131s-137-29-137-113c0-26 108-176 136-185 61-20 22 107-17 167-21 31-18 66-2 74 46 26 101 20 140 0 64-32 73-148 69-74z" class="st4"/><path d="M473 1097c-257-8-365-286-394-339-15-30-56-42-74-99s58-143 130-175 92-38 150 55 131 210 203 248" class="st0"/><path d="M7 614c7 7-10 28 3 59 21 47 43 36 63 75 49 94 113 199 182 263 89 82 177 86 218 86 28 0 16-45-143-121S94 726 106 683c7-24 10-62 24-81 9-11 30-51-56 7-22 14-15 13-28 5-30-20-17-42-17-42L7 614z" class="st2"/><path d="M160 552c19-8 10-58-85-24-23 9-2-12 60-45 38-20 83-25 117 6 0 0 3 36-52 79-67 53-61-7-40-16z" class="st1"/><path d="M904 1020c-2 77-108 178-144 304-17 62 44 153 116 168s152 25 176-69 152-97 166-332c15-235-155-304-155-304" class="st0"/><path d="M1037 756s196 100 181 335c-14 235-141 238-166 332s-104 84-176 69-136-107-116-168c13-40 222 76 265 12 0 0 156-150 53-356-43-84-582-40-617-294-3-22 586 92 576 70z" class="st2"/><path d="M1318 431c0 128-43 284-143 362-84 66-214 66-335 66-138 0-293-43-380-128-79-76-98-188-98-300C362 194 576 3 840 3s478 191 478 428z" class="st0"/><path d="M362 431c-16-227 301-579 734-362 0 0-321-86-507 104-154 157-220 345-227 258z" class="st1"/><path d="M1021 780c241-106 293-590 293-353 0 128-44 284-143 362-85 66-214 66-335 66-139 0-294-43-381-128 0 0 300 171 566 53z" class="st2"/><ellipse cx="637.1" cy="344.1" class="st5" rx="34.5" ry="46"/><ellipse cx="861.1" cy="372.5" class="st5" rx="40.5" ry="54.4"/><path d="M939 580c-4 97-92 135-197 135s-224-74-224-171c0-46 32-76 61-107 24-25 101-66 130-64 61 3 162 64 188 98 30 39 43 73 42 109z" class="st3"/><path d="M518 544c-1 97 120 171 224 171s193-38 197-135c1-36-12-70-42-109 0 0 33 84-4 156-16 29-160 73-239 39-84-36-135-153-136-122z" class="st4"/><path d="M664 418s0-15 22-28 66 19 71 32-66 36-66 36-30-21-27-40zM635 533a210 210 0 0143-36h2l2-1 2-1 1 2a157 157 0 0126 48 3 3 0 01-4 1l-6-12-7-11-7-12-6-11h2l-1 1-1 1-3 3-5 4-11 10a929 929 0 01-23 18 3 3 0 01-4-4z" class="st5"/><path d="M696 453l-3 11-3 12-3 11-2 11h-5l1-12v-3l1-3a99 99 0 019-29l5 2z" class="st5"/><ellipse cx="627.2" cy="358.3" class="st3" rx="9.9" ry="16.2"/><circle cx="680.1" cy="404.1" r="2.5" class="st3"/><circle cx="688.6" cy="399.2" r="5" class="st3"/><ellipse cx="845.7" cy="387.1" class="st3" rx="9.9" ry="16.2"/><ellipse cx="130.1" cy="570.1" class="st3" rx="109.5" ry="35.5" transform="rotate(-39 130 570)"/><path d="M215 501c13 16-16 59-63 97s-95 56-107 41c-12-16 51-18 98-56 47-37 60-97 72-82z" class="st4"/><path d="M962 1478c-8 9-35-1-65-7-23-5-63-29-76-45-26-30-29-38-25-43 7-13 50-3 96 24s80 60 70 71z" class="st3"/><path d="M962 1478c-8 9-35-1-65-7-23-5-63-29-76-45-26-30-29-38-25-43 7-13 50-3 96 24s80 60 70 71z" class="st4"/></svg>