<?xml version="1.0" encoding="utf-8"?>
<!-- Generator: Adobe Illustrator 22.0.1, SVG Export Plug-In . SVG Version: 6.00 Build 0)  -->
<svg version="1.1" id="Layer_1" xmlns="http://www.w3.org/2000/svg" xmlns:xlink="http://www.w3.org/1999/xlink" x="0px" y="0px"
	 viewBox="0 0 23.8 24" style="enable-background:new 0 0 23.8 24;" xml:space="preserve">
<style type="text/css">
	.st0{fill:#EB811B;}
	.st1{fill:#333333;}
</style>
<g>
	<polygon class="st0" points="18.1,7.7 18.3,5.2 16.4,3.6 18.8,3 19.8,0.6 21.1,2.8 23.6,2.9 22,4.9 22.6,7.3 20.3,6.3 	"/>
	<path class="st1" d="M16.1,15.5c3-3.7,4.4-7.5,3.1-8.6c-0.9-0.7-2.9,0.2-5.1,2.1c-0.2,0-0.3,0-0.3,0s0.6-6.7-6.3-6.7
		c-0.2,0-0.5,0-0.7,0C6.8,1.5,6.4,1.2,5.7,1.2c-0.8,0-1.4,0.8-1.5,2c-1.7,1-2.7,2.8-2.7,4.7c0,2.2,1.6,3.9,3.1,5
		c-2.7,1.7-4.4,6.2-4.4,10.2c0,0.4,3.4,0.7,7.4,0.7c3.6,0,7.7-0.2,7.7-1c0-1.3-0.7-3.3-1.5-4.9C14.7,17.2,15.4,16.4,16.1,15.5z
		 M12.8,7.7c0.3,0,0.6,0.5,0.6,1.1c0,0.6-0.3,1.1-0.6,1.1c-0.3,0-0.6-0.5-0.6-1.1C12.2,8.2,12.5,7.7,12.8,7.7z"/>
</g>
</svg>
