<svg xmlns="http://www.w3.org/2000/svg" viewBox="0 0 23.8 24">
<path fill="#eb811b" d="M18.1 7.7l.2-2.5-1.9-1.6 2.4-.6 1-2.4 1.3 2.2 2.5.1-1.6 2 .6 2.4-2.3-1z"/>
<path fill="{% if page.header.theme == 'light' %}#333{% else %}#fff{% endif %}" d="M16.1 15.5c3-3.7 4.4-7.5 3.1-8.6-.9-.7-2.9.2-5.1 2.1h-.3s.6-6.7-6.3-6.7h-.7c0-.8-.4-1.1-1.1-1.1-.8 0-1.4.8-1.5 2a5.5 5.5 0 00-2.7 4.7c0 2.2 1.6 3.9 3.1 5C1.9 14.6.2 19.1.2 23.1c0 .4 3.4.7 7.4.7 3.6 0 7.7-.2 7.7-1a13 13 0 00-1.5-4.9 13 13 0 002.3-2.4zm-3.3-7.8c.3 0 .6.5.6 1.1 0 .6-.3 1.1-.6 1.1s-.6-.5-.6-1.1c0-.6.3-1.1.6-1.1z"/></svg>