<?xml version="1.0" encoding="utf-8"?>
<!-- Generator: Adobe Illustrator 22.0.1, SVG Export Plug-In . SVG Version: 6.00 Build 0)  -->
<svg version="1.1" id="Layer_1" xmlns="http://www.w3.org/2000/svg" xmlns:xlink="http://www.w3.org/1999/xlink" x="0px" y="0px"
	 viewBox="0 0 23.8 24" style="enable-background:new 0 0 23.8 24;" xml:space="preserve">
<style type="text/css">
	.st0{fill:#EB811B;}
	.st1{fill:#604C38;stroke:#000000;stroke-width:0.3;stroke-miterlimit:10;}
</style>
<g>
	<polygon class="st0" points="18.1,7.7 18.3,5.2 16.4,3.6 18.8,3 19.8,0.6 21.1,2.8 23.6,2.9 22,4.9 22.6,7.3 20.3,6.3 	"/>
	<path class="st1" d="M15.4,22.8c0,0.9-4.1,1-7.7,1c-4,0-7.4-0.4-7.4-0.7c0-5.1,2.7-11,6.7-11c2.3,0,4,0.8,5.3,3
		C13.5,16.6,15.4,20.5,15.4,22.8z"/>
	<path class="st1" d="M13.9,9c0,0,3.4,0,3.4,3.8c0,2.3-8.4,1.9-10.9,1.1c-1.7-0.6-4.8-2.7-4.8-5.9s2.7-5.7,6.1-5.7
		C14.5,2.3,13.9,9,13.9,9z"/>
	<ellipse cx="12.8" cy="8.8" rx="0.6" ry="1.1"/>
	<ellipse transform="matrix(0.6298 -0.7768 0.7768 0.6298 -5.4554 15.796)" class="st1" cx="13.8" cy="13.6" rx="8.6" ry="2.9"/>
	<path class="st1" d="M7,2.9C7,4.1,6.5,5,5.7,5.2C4.9,5.4,4.2,4.6,4.2,3.3s0.6-2.1,1.5-2.1S7,1.6,7,2.9z"/>
</g>
</svg>
