<?xml version="1.0" standalone="no"?>
<!DOCTYPE svg PUBLIC "-//W3C//DTD SVG 20010904//EN"
 "http://www.w3.org/TR/2001/REC-SVG-20010904/DTD/svg10.dtd">
<svg version="1.0" xmlns="http://www.w3.org/2000/svg"
 width="700.000000pt" height="700.000000pt" viewBox="0 0 700.000000 700.000000"
 preserveAspectRatio="xMidYMid meet">
<metadata>
Created by potrace 1.11, written by Peter Selinger 2001-2013
</metadata>
<g transform="translate(0.000000,700.000000) scale(0.100000,-0.100000)"
fill="#000000" stroke="none">
<path d="M5801 6775 c-12 -26 -21 -53 -21 -59 0 -7 -4 -16 -8 -21 -5 -6 -17
-30 -26 -55 -10 -25 -24 -58 -31 -75 -7 -16 -27 -61 -43 -100 -16 -38 -55
-131 -86 -205 l-57 -135 -337 -83 c-185 -46 -343 -83 -349 -83 -22 1 -14 -14
25 -46 20 -17 47 -40 60 -51 13 -11 42 -35 64 -54 43 -34 170 -140 223 -185
17 -14 61 -51 98 -82 l69 -56 -6 -80 c-4 -44 -9 -116 -13 -160 -3 -44 -7 -87
-8 -95 -2 -8 -4 -33 -4 -55 l-1 -40 -65 -13 c-287 -54 -706 -298 -1117 -650
-10 -8 -38 -15 -62 -17 l-45 -2 0 131 c-1 123 -5 200 -16 271 -3 17 -7 48 -10
70 -43 308 -173 633 -340 850 -169 220 -368 371 -645 488 -86 37 -290 94 -395
111 -119 20 -229 28 -425 33 -124 3 -226 6 -227 7 -1 0 -4 28 -8 61 -4 33 -15
79 -25 101 -18 42 -86 115 -112 120 -7 2 -31 10 -53 18 -66 25 -196 16 -273
-19 -79 -35 -166 -127 -212 -223 -35 -73 -80 -235 -80 -287 0 -29 -7 -37 -67
-76 -318 -206 -574 -551 -669 -902 -47 -173 -59 -262 -58 -447 1 -248 60 -457
197 -695 114 -200 362 -474 590 -655 l117 -93 -37 -25 c-21 -14 -50 -35 -65
-46 -14 -12 -41 -32 -60 -46 -18 -14 -77 -68 -132 -120 -427 -411 -780 -1145
-916 -1903 -11 -62 -22 -121 -24 -132 -2 -11 -7 -45 -11 -75 -4 -30 -9 -62
-10 -70 -1 -8 -6 -51 -10 -95 -5 -44 -10 -91 -11 -105 -1 -14 -6 -100 -10
-192 -7 -181 -6 -190 46 -210 41 -17 121 -37 185 -48 33 -5 71 -12 85 -14 73
-13 330 -41 463 -51 317 -22 531 -32 827 -40 205 -5 1013 -5 1180 0 201 6 433
16 500 20 36 3 103 7 149 10 46 2 106 7 135 10 28 3 71 7 96 9 124 13 173 19
264 32 286 42 450 97 490 165 17 29 17 47 1 168 -11 84 -47 281 -61 336 -9 33
-17 67 -19 75 -35 176 -146 480 -266 728 l-78 163 26 22 c229 191 415 381 582
592 39 50 100 126 135 170 325 410 639 915 781 1255 15 36 33 79 40 95 31 73
96 262 110 320 47 195 62 385 42 510 -9 58 -47 145 -83 193 -14 18 -24 34 -23
36 23 17 282 178 292 182 12 4 102 -32 292 -116 128 -57 375 -160 383 -160 6
0 4 20 -5 48 -8 26 -18 65 -23 87 -4 22 -38 156 -74 298 l-65 259 77 96 c42
53 79 99 83 102 3 3 25 30 48 60 23 30 58 73 76 95 90 107 175 216 175 223 0
4 -17 8 -37 9 -21 0 -117 4 -213 8 -277 12 -310 13 -392 14 l-78 1 -24 38
c-13 20 -97 161 -187 312 -89 151 -166 279 -170 284 -4 4 -17 -13 -28 -39z
m-1960 -2059 c35 -34 42 -46 75 -126 26 -62 26 -244 0 -314 -61 -165 -165
-209 -247 -105 -17 22 -42 70 -55 107 -19 56 -22 84 -20 173 2 94 6 112 33
170 46 98 80 128 143 129 27 0 44 -8 71 -34z"/>
</g>
</svg>
